G75*
%MOIN*%
%OFA0B0*%
%FSLAX24Y24*%
%IPPOS*%
%LPD*%
%AMOC8*
5,1,8,0,0,1.08239X$1,22.5*
%
%ADD10C,0.0160*%
%ADD11R,0.0906X0.0906*%
%ADD12C,0.0000*%
%ADD13OC8,0.0480*%
%ADD14C,0.0120*%
%ADD15OC8,0.0660*%
%ADD16R,0.0472X0.0551*%
%ADD17C,0.0100*%
%ADD18C,0.0060*%
D10*
X001432Y000382D02*
X001432Y006721D01*
X013125Y006721D01*
X013125Y000382D01*
X001432Y000382D01*
X001904Y000692D02*
X001857Y004289D01*
X001974Y004289D01*
X001974Y004842D01*
X002134Y004842D01*
X002134Y005002D01*
X001974Y005002D01*
X001974Y005555D01*
X001841Y005555D01*
X001830Y006411D01*
X012771Y006411D01*
X012771Y003066D01*
X012575Y003066D01*
X012575Y002514D01*
X012415Y002514D01*
X012415Y003066D01*
X012019Y003066D01*
X011973Y003054D01*
X011932Y003030D01*
X011898Y002997D01*
X011875Y002956D01*
X011862Y002910D01*
X011862Y002514D01*
X012415Y002514D01*
X012415Y002354D01*
X011862Y002354D01*
X011862Y001957D01*
X011875Y001911D01*
X011898Y001870D01*
X011932Y001837D01*
X011973Y001813D01*
X012019Y001801D01*
X012415Y001801D01*
X012415Y002354D01*
X012575Y002354D01*
X012575Y001801D01*
X012771Y001801D01*
X012771Y000692D01*
X005222Y000692D01*
X005250Y000720D01*
X006573Y000720D01*
X006690Y000837D01*
X006750Y000897D01*
X007131Y000897D01*
X007401Y001167D01*
X007857Y001167D01*
X007857Y001033D01*
X007939Y000951D01*
X008527Y000951D01*
X008609Y001033D01*
X008609Y001700D01*
X008527Y001782D01*
X007939Y001782D01*
X007857Y001700D01*
X007857Y001567D01*
X007401Y001567D01*
X007131Y001837D01*
X006742Y001837D01*
X006467Y001561D01*
X006467Y001180D01*
X006407Y001120D01*
X005250Y001120D01*
X005070Y001300D01*
X004755Y001300D01*
X004532Y001077D01*
X004532Y000762D01*
X004602Y000692D01*
X001904Y000692D01*
X001902Y000821D02*
X004532Y000821D01*
X004532Y000979D02*
X001900Y000979D01*
X001898Y001138D02*
X004593Y001138D01*
X004586Y001250D02*
X004412Y001250D01*
X004412Y001670D01*
X004412Y001670D01*
X003992Y001670D01*
X003992Y001844D01*
X004238Y002090D01*
X004412Y002090D01*
X004412Y001670D01*
X004412Y001670D01*
X003992Y001670D01*
X003992Y001496D01*
X004238Y001250D01*
X004412Y001250D01*
X004412Y001670D01*
X004412Y001670D01*
X004412Y002090D01*
X004586Y002090D01*
X004832Y001844D01*
X004832Y001670D01*
X004412Y001670D01*
X004412Y001670D01*
X004832Y001670D01*
X004832Y001496D01*
X004586Y001250D01*
X004633Y001296D02*
X004751Y001296D01*
X004791Y001455D02*
X005090Y001455D01*
X005032Y001512D02*
X005255Y001290D01*
X005570Y001290D01*
X005792Y001512D01*
X005792Y001827D01*
X005570Y002050D01*
X005449Y002050D01*
X005449Y002064D01*
X006449Y003064D01*
X006449Y004221D01*
X006338Y004332D01*
X006303Y004367D01*
X006348Y004411D01*
X006348Y005433D01*
X006266Y005515D01*
X005244Y005515D01*
X005162Y005433D01*
X005162Y004411D01*
X005244Y004329D01*
X005803Y004329D01*
X006069Y004064D01*
X006069Y003221D01*
X005180Y002332D01*
X005069Y002221D01*
X005069Y001864D01*
X005032Y001827D01*
X005032Y001512D01*
X005032Y001613D02*
X004832Y001613D01*
X004832Y001772D02*
X005032Y001772D01*
X005069Y001930D02*
X004746Y001930D01*
X004587Y002089D02*
X005069Y002089D01*
X005095Y002247D02*
X003949Y002247D01*
X003949Y002089D02*
X004237Y002089D01*
X004412Y002089D02*
X004412Y002089D01*
X004412Y001930D02*
X004412Y001930D01*
X004079Y001930D02*
X003395Y001930D01*
X003395Y001952D02*
X003838Y001952D01*
X003949Y002064D01*
X003949Y004721D01*
X003646Y005024D01*
X003729Y005107D01*
X003729Y005422D01*
X003507Y005644D01*
X003192Y005644D01*
X002969Y005422D01*
X002969Y005107D01*
X003192Y004884D01*
X003248Y004884D01*
X003569Y004564D01*
X003569Y002332D01*
X003346Y002332D01*
X003313Y002365D01*
X002291Y002365D01*
X002209Y002283D01*
X002209Y001261D01*
X002291Y001179D01*
X003313Y001179D01*
X003395Y001261D01*
X003395Y001952D01*
X003395Y001772D02*
X003992Y001772D01*
X003992Y001613D02*
X003395Y001613D01*
X003395Y001455D02*
X004033Y001455D01*
X004192Y001296D02*
X003395Y001296D01*
X004412Y001296D02*
X004412Y001296D01*
X004412Y001455D02*
X004412Y001455D01*
X004412Y001613D02*
X004412Y001613D01*
X004412Y001772D02*
X004412Y001772D01*
X005073Y001296D02*
X005249Y001296D01*
X005576Y001296D02*
X006467Y001296D01*
X006467Y001455D02*
X005735Y001455D01*
X005792Y001613D02*
X006519Y001613D01*
X006677Y001772D02*
X005792Y001772D01*
X005689Y001930D02*
X008202Y001930D01*
X008202Y001923D02*
X008284Y001841D01*
X009305Y001841D01*
X009387Y001923D01*
X009387Y001972D01*
X010089Y001972D01*
X010089Y001783D01*
X009872Y001567D01*
X009417Y001567D01*
X009417Y001700D01*
X009335Y001782D01*
X008746Y001782D01*
X008664Y001700D01*
X008664Y001033D01*
X008746Y000951D01*
X009335Y000951D01*
X009417Y001033D01*
X009417Y001167D01*
X009872Y001167D01*
X010142Y000897D01*
X010531Y000897D01*
X010807Y001172D01*
X010807Y001561D01*
X010531Y001837D01*
X010429Y001837D01*
X010429Y002213D01*
X010329Y002312D01*
X009387Y002312D01*
X009387Y002944D01*
X009305Y003026D01*
X008284Y003026D01*
X008202Y002944D01*
X008202Y001923D01*
X007928Y001772D02*
X007196Y001772D01*
X007355Y001613D02*
X007857Y001613D01*
X008538Y001772D02*
X008736Y001772D01*
X008664Y001613D02*
X008609Y001613D01*
X008609Y001455D02*
X008664Y001455D01*
X008664Y001296D02*
X008609Y001296D01*
X008609Y001138D02*
X008664Y001138D01*
X008718Y000979D02*
X008556Y000979D01*
X007911Y000979D02*
X007214Y000979D01*
X007373Y001138D02*
X007857Y001138D01*
X006674Y000821D02*
X012771Y000821D01*
X012771Y000979D02*
X010614Y000979D01*
X010773Y001138D02*
X012771Y001138D01*
X012771Y001296D02*
X010807Y001296D01*
X010807Y001455D02*
X012771Y001455D01*
X012771Y001613D02*
X010755Y001613D01*
X010596Y001772D02*
X012771Y001772D01*
X012575Y001930D02*
X012415Y001930D01*
X012415Y002089D02*
X012575Y002089D01*
X012575Y002247D02*
X012415Y002247D01*
X012415Y002406D02*
X009387Y002406D01*
X009387Y002564D02*
X011862Y002564D01*
X011862Y002723D02*
X009387Y002723D01*
X009387Y002881D02*
X011862Y002881D01*
X011948Y003040D02*
X007804Y003040D01*
X007804Y003198D02*
X012771Y003198D01*
X012575Y003040D02*
X012415Y003040D01*
X012415Y002881D02*
X012575Y002881D01*
X012575Y002723D02*
X012415Y002723D01*
X012415Y002564D02*
X012575Y002564D01*
X011862Y002247D02*
X010394Y002247D01*
X010429Y002089D02*
X011862Y002089D01*
X011870Y001930D02*
X010429Y001930D01*
X010089Y001930D02*
X009387Y001930D01*
X009345Y001772D02*
X010077Y001772D01*
X009919Y001613D02*
X009417Y001613D01*
X009417Y001138D02*
X009901Y001138D01*
X010060Y000979D02*
X009363Y000979D01*
X008202Y002089D02*
X005474Y002089D01*
X005633Y002247D02*
X008202Y002247D01*
X008202Y002406D02*
X005791Y002406D01*
X005950Y002564D02*
X006619Y002564D01*
X006619Y002561D02*
X006701Y002479D01*
X007722Y002479D01*
X007804Y002561D01*
X007804Y003582D01*
X007722Y003664D01*
X006701Y003664D01*
X006619Y003582D01*
X006619Y002561D01*
X006619Y002723D02*
X006108Y002723D01*
X006267Y002881D02*
X006619Y002881D01*
X006619Y003040D02*
X006425Y003040D01*
X006449Y003198D02*
X006619Y003198D01*
X006619Y003357D02*
X006449Y003357D01*
X006449Y003515D02*
X006619Y003515D01*
X006449Y003674D02*
X008898Y003674D01*
X008861Y003711D02*
X009009Y003563D01*
X009202Y003483D01*
X009411Y003483D01*
X009604Y003563D01*
X009751Y003711D01*
X009831Y003904D01*
X009831Y004113D01*
X009751Y004306D01*
X009604Y004454D01*
X009411Y004534D01*
X009202Y004534D01*
X009009Y004454D01*
X008861Y004306D01*
X008781Y004113D01*
X008781Y003904D01*
X008861Y003711D01*
X008810Y003832D02*
X007930Y003832D01*
X007930Y003773D02*
X007930Y004795D01*
X007848Y004877D01*
X006827Y004877D01*
X006745Y004795D01*
X006745Y003773D01*
X006827Y003691D01*
X007848Y003691D01*
X007930Y003773D01*
X007930Y003991D02*
X008781Y003991D01*
X008796Y004149D02*
X007930Y004149D01*
X007930Y004308D02*
X008863Y004308D01*
X009039Y004466D02*
X007930Y004466D01*
X007930Y004625D02*
X012771Y004625D01*
X012771Y004466D02*
X012329Y004466D01*
X012360Y004454D02*
X012166Y004534D01*
X011958Y004534D01*
X011764Y004454D01*
X011617Y004306D01*
X011537Y004113D01*
X011537Y003904D01*
X011617Y003711D01*
X011764Y003563D01*
X011958Y003483D01*
X012166Y003483D01*
X012360Y003563D01*
X012507Y003711D01*
X012587Y003904D01*
X012587Y004113D01*
X012507Y004306D01*
X012360Y004454D01*
X012505Y004308D02*
X012771Y004308D01*
X012771Y004149D02*
X012572Y004149D01*
X012587Y003991D02*
X012771Y003991D01*
X012771Y003832D02*
X012558Y003832D01*
X012470Y003674D02*
X012771Y003674D01*
X012771Y003515D02*
X012244Y003515D01*
X011880Y003515D02*
X009488Y003515D01*
X009714Y003674D02*
X011654Y003674D01*
X011566Y003832D02*
X009802Y003832D01*
X009831Y003991D02*
X011537Y003991D01*
X011552Y004149D02*
X009816Y004149D01*
X009750Y004308D02*
X011619Y004308D01*
X011795Y004466D02*
X009573Y004466D01*
X010063Y005267D02*
X010453Y005267D01*
X010569Y005383D01*
X011154Y005383D01*
X011154Y005072D01*
X011236Y004990D01*
X012258Y004990D01*
X012340Y005072D01*
X012340Y006094D01*
X012258Y006176D01*
X011236Y006176D01*
X011154Y006094D01*
X011154Y005783D01*
X010728Y005783D01*
X010728Y005931D01*
X010453Y006207D01*
X010063Y006207D01*
X009793Y005937D01*
X009338Y005937D01*
X009338Y006070D01*
X009256Y006152D01*
X008668Y006152D01*
X008586Y006070D01*
X008586Y005403D01*
X008668Y005321D01*
X009256Y005321D01*
X009338Y005403D01*
X009338Y005537D01*
X009793Y005537D01*
X010063Y005267D01*
X009913Y005417D02*
X009338Y005417D01*
X008586Y005417D02*
X008531Y005417D01*
X008531Y005403D02*
X008531Y006070D01*
X008449Y006152D01*
X007860Y006152D01*
X007778Y006070D01*
X007778Y005937D01*
X007323Y005937D01*
X007053Y006207D01*
X006949Y006207D01*
X006949Y006221D01*
X006838Y006332D01*
X004069Y006332D01*
X004007Y006394D01*
X003692Y006394D01*
X003469Y006172D01*
X003469Y005857D01*
X003692Y005634D01*
X004007Y005634D01*
X004229Y005857D01*
X004229Y005952D01*
X006409Y005952D01*
X006388Y005931D01*
X006388Y005542D01*
X006663Y005267D01*
X007053Y005267D01*
X007323Y005537D01*
X007778Y005537D01*
X007778Y005403D01*
X007860Y005321D01*
X008449Y005321D01*
X008531Y005403D01*
X008531Y005576D02*
X008586Y005576D01*
X008586Y005734D02*
X008531Y005734D01*
X008531Y005893D02*
X008586Y005893D01*
X008586Y006051D02*
X008531Y006051D01*
X007778Y006051D02*
X007208Y006051D01*
X006949Y006210D02*
X012771Y006210D01*
X012771Y006368D02*
X004033Y006368D01*
X003666Y006368D02*
X001831Y006368D01*
X001833Y006210D02*
X003508Y006210D01*
X003469Y006051D02*
X001835Y006051D01*
X001837Y005893D02*
X003469Y005893D01*
X003592Y005734D02*
X001839Y005734D01*
X001841Y005576D02*
X003123Y005576D01*
X002969Y005417D02*
X002682Y005417D01*
X002687Y005398D02*
X002675Y005444D01*
X002651Y005485D01*
X002617Y005519D01*
X002576Y005542D01*
X002531Y005555D01*
X002134Y005555D01*
X002134Y005002D01*
X002687Y005002D01*
X002687Y005398D01*
X002687Y005259D02*
X002969Y005259D01*
X002976Y005100D02*
X002687Y005100D01*
X003135Y004942D02*
X002134Y004942D01*
X002134Y004842D02*
X002687Y004842D01*
X002687Y004445D01*
X002675Y004400D01*
X002651Y004359D01*
X002617Y004325D01*
X002576Y004301D01*
X002531Y004289D01*
X002134Y004289D01*
X002134Y004842D01*
X002134Y004783D02*
X001974Y004783D01*
X001974Y004625D02*
X002134Y004625D01*
X002134Y004466D02*
X001974Y004466D01*
X001974Y004308D02*
X002134Y004308D01*
X001859Y004149D02*
X003569Y004149D01*
X003569Y004308D02*
X002588Y004308D01*
X002687Y004466D02*
X003569Y004466D01*
X003508Y004625D02*
X002687Y004625D01*
X002687Y004783D02*
X003349Y004783D01*
X003728Y004942D02*
X004078Y004942D01*
X004349Y004942D02*
X004349Y004942D01*
X004349Y004844D02*
X004175Y004844D01*
X003929Y005090D01*
X003929Y005264D01*
X004349Y005264D01*
X004349Y005264D01*
X004349Y005264D01*
X004349Y004844D01*
X004523Y004844D01*
X004769Y005090D01*
X004769Y005264D01*
X004349Y005264D01*
X003929Y005264D01*
X003929Y005438D01*
X004175Y005684D01*
X004349Y005684D01*
X004349Y005264D01*
X004349Y004844D01*
X004621Y004942D02*
X005162Y004942D01*
X005162Y005100D02*
X004769Y005100D01*
X004769Y005259D02*
X005162Y005259D01*
X005162Y005417D02*
X004769Y005417D01*
X004769Y005438D02*
X004523Y005684D01*
X004349Y005684D01*
X004349Y005264D01*
X004349Y005264D01*
X004349Y005264D01*
X004769Y005264D01*
X004769Y005438D01*
X004632Y005576D02*
X006388Y005576D01*
X006388Y005734D02*
X004107Y005734D01*
X004067Y005576D02*
X003575Y005576D01*
X003729Y005417D02*
X003929Y005417D01*
X003929Y005259D02*
X003729Y005259D01*
X003723Y005100D02*
X003929Y005100D01*
X004349Y005100D02*
X004349Y005100D01*
X004349Y005259D02*
X004349Y005259D01*
X004349Y005417D02*
X004349Y005417D01*
X004349Y005576D02*
X004349Y005576D01*
X004229Y005893D02*
X006388Y005893D01*
X006348Y005417D02*
X006513Y005417D01*
X006348Y005259D02*
X011154Y005259D01*
X011154Y005100D02*
X006348Y005100D01*
X006348Y004942D02*
X012771Y004942D01*
X012771Y005100D02*
X012340Y005100D01*
X012340Y005259D02*
X012771Y005259D01*
X012771Y005417D02*
X012340Y005417D01*
X012340Y005576D02*
X012771Y005576D01*
X012771Y005734D02*
X012340Y005734D01*
X012340Y005893D02*
X012771Y005893D01*
X012771Y006051D02*
X012340Y006051D01*
X011154Y006051D02*
X010608Y006051D01*
X010728Y005893D02*
X011154Y005893D01*
X009908Y006051D02*
X009338Y006051D01*
X007778Y005417D02*
X007203Y005417D01*
X006745Y004783D02*
X006348Y004783D01*
X006348Y004625D02*
X006745Y004625D01*
X006745Y004466D02*
X006348Y004466D01*
X006362Y004308D02*
X006745Y004308D01*
X006745Y004149D02*
X006449Y004149D01*
X006449Y003991D02*
X006745Y003991D01*
X006745Y003832D02*
X006449Y003832D01*
X006069Y003832D02*
X005444Y003832D01*
X005348Y003872D02*
X005139Y003872D01*
X004946Y003792D01*
X004798Y003645D01*
X004718Y003451D01*
X004718Y003242D01*
X004798Y003049D01*
X004946Y002902D01*
X005139Y002822D01*
X005348Y002822D01*
X005541Y002902D01*
X005688Y003049D01*
X005768Y003242D01*
X005768Y003451D01*
X005688Y003645D01*
X005541Y003792D01*
X005348Y003872D01*
X005042Y003832D02*
X003949Y003832D01*
X003949Y003674D02*
X004827Y003674D01*
X004744Y003515D02*
X003949Y003515D01*
X003949Y003357D02*
X004718Y003357D01*
X004736Y003198D02*
X003949Y003198D01*
X003949Y003040D02*
X004807Y003040D01*
X004995Y002881D02*
X003949Y002881D01*
X003949Y002723D02*
X005571Y002723D01*
X005491Y002881D02*
X005729Y002881D01*
X005679Y003040D02*
X005888Y003040D01*
X005750Y003198D02*
X006046Y003198D01*
X006069Y003357D02*
X005768Y003357D01*
X005742Y003515D02*
X006069Y003515D01*
X006069Y003674D02*
X005659Y003674D01*
X006069Y003991D02*
X003949Y003991D01*
X003949Y004149D02*
X005983Y004149D01*
X005825Y004308D02*
X003949Y004308D01*
X003949Y004466D02*
X005162Y004466D01*
X005162Y004625D02*
X003949Y004625D01*
X003887Y004783D02*
X005162Y004783D01*
X003569Y003991D02*
X001861Y003991D01*
X001863Y003832D02*
X002286Y003832D01*
X002190Y003792D02*
X002042Y003645D01*
X001962Y003451D01*
X001962Y003242D01*
X002042Y003049D01*
X002190Y002902D01*
X002383Y002822D01*
X002592Y002822D01*
X002785Y002902D01*
X002933Y003049D01*
X003012Y003242D01*
X003012Y003451D01*
X002933Y003645D01*
X002785Y003792D01*
X002592Y003872D01*
X002383Y003872D01*
X002190Y003792D01*
X002071Y003674D02*
X001865Y003674D01*
X001867Y003515D02*
X001988Y003515D01*
X001962Y003357D02*
X001869Y003357D01*
X001871Y003198D02*
X001980Y003198D01*
X002052Y003040D02*
X001873Y003040D01*
X001876Y002881D02*
X002239Y002881D01*
X001878Y002723D02*
X003569Y002723D01*
X003569Y002881D02*
X002736Y002881D01*
X002923Y003040D02*
X003569Y003040D01*
X003569Y003198D02*
X002994Y003198D01*
X003012Y003357D02*
X003569Y003357D01*
X003569Y003515D02*
X002986Y003515D01*
X002903Y003674D02*
X003569Y003674D01*
X003569Y003832D02*
X002688Y003832D01*
X002134Y005100D02*
X001974Y005100D01*
X001974Y005259D02*
X002134Y005259D01*
X002134Y005417D02*
X001974Y005417D01*
X001880Y002564D02*
X003569Y002564D01*
X003569Y002406D02*
X001882Y002406D01*
X001884Y002247D02*
X002209Y002247D01*
X002209Y002089D02*
X001886Y002089D01*
X001888Y001930D02*
X002209Y001930D01*
X002209Y001772D02*
X001890Y001772D01*
X001892Y001613D02*
X002209Y001613D01*
X002209Y001455D02*
X001894Y001455D01*
X001896Y001296D02*
X002209Y001296D01*
X003949Y002406D02*
X005254Y002406D01*
X005412Y002564D02*
X003949Y002564D01*
X005232Y001138D02*
X006425Y001138D01*
X007804Y002564D02*
X008202Y002564D01*
X008202Y002723D02*
X007804Y002723D01*
X007804Y002881D02*
X008202Y002881D01*
X007804Y003357D02*
X012771Y003357D01*
X012771Y004783D02*
X007930Y004783D01*
X007804Y003515D02*
X009124Y003515D01*
D11*
X007338Y004284D03*
X005755Y004922D03*
X002054Y004922D03*
X007212Y003071D03*
X008794Y002434D03*
X012495Y002434D03*
X011747Y005583D03*
X002802Y001772D03*
D12*
X002192Y003347D02*
X002194Y003381D01*
X002200Y003415D01*
X002210Y003448D01*
X002223Y003479D01*
X002241Y003509D01*
X002261Y003537D01*
X002285Y003562D01*
X002311Y003584D01*
X002339Y003602D01*
X002370Y003618D01*
X002402Y003630D01*
X002436Y003638D01*
X002470Y003642D01*
X002504Y003642D01*
X002538Y003638D01*
X002572Y003630D01*
X002604Y003618D01*
X002634Y003602D01*
X002663Y003584D01*
X002689Y003562D01*
X002713Y003537D01*
X002733Y003509D01*
X002751Y003479D01*
X002764Y003448D01*
X002774Y003415D01*
X002780Y003381D01*
X002782Y003347D01*
X002780Y003313D01*
X002774Y003279D01*
X002764Y003246D01*
X002751Y003215D01*
X002733Y003185D01*
X002713Y003157D01*
X002689Y003132D01*
X002663Y003110D01*
X002635Y003092D01*
X002604Y003076D01*
X002572Y003064D01*
X002538Y003056D01*
X002504Y003052D01*
X002470Y003052D01*
X002436Y003056D01*
X002402Y003064D01*
X002370Y003076D01*
X002339Y003092D01*
X002311Y003110D01*
X002285Y003132D01*
X002261Y003157D01*
X002241Y003185D01*
X002223Y003215D01*
X002210Y003246D01*
X002200Y003279D01*
X002194Y003313D01*
X002192Y003347D01*
X004948Y003347D02*
X004950Y003381D01*
X004956Y003415D01*
X004966Y003448D01*
X004979Y003479D01*
X004997Y003509D01*
X005017Y003537D01*
X005041Y003562D01*
X005067Y003584D01*
X005095Y003602D01*
X005126Y003618D01*
X005158Y003630D01*
X005192Y003638D01*
X005226Y003642D01*
X005260Y003642D01*
X005294Y003638D01*
X005328Y003630D01*
X005360Y003618D01*
X005390Y003602D01*
X005419Y003584D01*
X005445Y003562D01*
X005469Y003537D01*
X005489Y003509D01*
X005507Y003479D01*
X005520Y003448D01*
X005530Y003415D01*
X005536Y003381D01*
X005538Y003347D01*
X005536Y003313D01*
X005530Y003279D01*
X005520Y003246D01*
X005507Y003215D01*
X005489Y003185D01*
X005469Y003157D01*
X005445Y003132D01*
X005419Y003110D01*
X005391Y003092D01*
X005360Y003076D01*
X005328Y003064D01*
X005294Y003056D01*
X005260Y003052D01*
X005226Y003052D01*
X005192Y003056D01*
X005158Y003064D01*
X005126Y003076D01*
X005095Y003092D01*
X005067Y003110D01*
X005041Y003132D01*
X005017Y003157D01*
X004997Y003185D01*
X004979Y003215D01*
X004966Y003246D01*
X004956Y003279D01*
X004950Y003313D01*
X004948Y003347D01*
X009011Y004008D02*
X009013Y004042D01*
X009019Y004076D01*
X009029Y004109D01*
X009042Y004140D01*
X009060Y004170D01*
X009080Y004198D01*
X009104Y004223D01*
X009130Y004245D01*
X009158Y004263D01*
X009189Y004279D01*
X009221Y004291D01*
X009255Y004299D01*
X009289Y004303D01*
X009323Y004303D01*
X009357Y004299D01*
X009391Y004291D01*
X009423Y004279D01*
X009453Y004263D01*
X009482Y004245D01*
X009508Y004223D01*
X009532Y004198D01*
X009552Y004170D01*
X009570Y004140D01*
X009583Y004109D01*
X009593Y004076D01*
X009599Y004042D01*
X009601Y004008D01*
X009599Y003974D01*
X009593Y003940D01*
X009583Y003907D01*
X009570Y003876D01*
X009552Y003846D01*
X009532Y003818D01*
X009508Y003793D01*
X009482Y003771D01*
X009454Y003753D01*
X009423Y003737D01*
X009391Y003725D01*
X009357Y003717D01*
X009323Y003713D01*
X009289Y003713D01*
X009255Y003717D01*
X009221Y003725D01*
X009189Y003737D01*
X009158Y003753D01*
X009130Y003771D01*
X009104Y003793D01*
X009080Y003818D01*
X009060Y003846D01*
X009042Y003876D01*
X009029Y003907D01*
X009019Y003940D01*
X009013Y003974D01*
X009011Y004008D01*
X011767Y004008D02*
X011769Y004042D01*
X011775Y004076D01*
X011785Y004109D01*
X011798Y004140D01*
X011816Y004170D01*
X011836Y004198D01*
X011860Y004223D01*
X011886Y004245D01*
X011914Y004263D01*
X011945Y004279D01*
X011977Y004291D01*
X012011Y004299D01*
X012045Y004303D01*
X012079Y004303D01*
X012113Y004299D01*
X012147Y004291D01*
X012179Y004279D01*
X012209Y004263D01*
X012238Y004245D01*
X012264Y004223D01*
X012288Y004198D01*
X012308Y004170D01*
X012326Y004140D01*
X012339Y004109D01*
X012349Y004076D01*
X012355Y004042D01*
X012357Y004008D01*
X012355Y003974D01*
X012349Y003940D01*
X012339Y003907D01*
X012326Y003876D01*
X012308Y003846D01*
X012288Y003818D01*
X012264Y003793D01*
X012238Y003771D01*
X012210Y003753D01*
X012179Y003737D01*
X012147Y003725D01*
X012113Y003717D01*
X012079Y003713D01*
X012045Y003713D01*
X012011Y003717D01*
X011977Y003725D01*
X011945Y003737D01*
X011914Y003753D01*
X011886Y003771D01*
X011860Y003793D01*
X011836Y003818D01*
X011816Y003846D01*
X011798Y003876D01*
X011785Y003907D01*
X011775Y003940D01*
X011769Y003974D01*
X011767Y004008D01*
D13*
X005412Y001670D03*
X004412Y001670D03*
X004912Y000920D03*
X004349Y005264D03*
X003349Y005264D03*
X003849Y006014D03*
D14*
X007086Y005737D02*
X008125Y005737D01*
X008952Y005737D02*
X010266Y005737D01*
X010258Y005737D02*
X010412Y005583D01*
X011747Y005583D01*
X010345Y001367D02*
X009031Y001367D01*
X008204Y001367D02*
X007165Y001367D01*
X006937Y001367D02*
X006490Y000920D01*
X004912Y000920D01*
D15*
X006937Y001367D03*
X010337Y001367D03*
X010258Y005737D03*
X006858Y005737D03*
D16*
X008154Y005737D03*
X008962Y005737D03*
X009041Y001367D03*
X008233Y001367D03*
D17*
X005412Y001670D02*
X005259Y001642D01*
X005259Y002142D01*
X006259Y003142D01*
X006259Y004142D01*
X005759Y004642D01*
X005755Y004922D01*
X006759Y005642D02*
X006858Y005737D01*
X006759Y005642D02*
X006759Y006142D01*
X003759Y006142D01*
X003849Y006014D01*
X003349Y005264D02*
X003259Y005142D01*
X003759Y004642D01*
X003759Y002142D01*
X002759Y002142D01*
X002802Y001772D01*
D18*
X008759Y002142D02*
X008794Y002434D01*
X008759Y002142D02*
X010259Y002142D01*
X010259Y001642D01*
X010337Y001367D01*
M02*
